<svg width="38" height="44" viewBox="0 0 38 44" fill="none" xmlns="http://www.w3.org/2000/svg">
<path d="M7.66736 2L2.0015 10V38C1.97288 39.0312 2.35464 40.0317 3.06296 40.7816C3.77128 41.5316 4.74825 41.9698 5.77935 42H32.2206C33.2517 41.9698 34.2287 41.5316 34.937 40.7816C35.6454 40.0317 36.0271 39.0312 35.9985 38V10L30.3326 2H7.66736Z" stroke="black" stroke-width="2.5" stroke-linecap="round" stroke-linejoin="round"/>
<path d="M2.00195 10H35.9989" stroke="black" stroke-width="2.5" stroke-linecap="round" stroke-linejoin="round"/>
<path d="M27.7379 17.6311C27.7379 19.9489 26.8172 22.1717 25.1785 23.8106C23.5397 25.4495 21.3171 26.3702 18.9996 26.3702C16.682 26.3702 14.4594 25.4495 12.8206 23.8106C11.1819 22.1717 10.2612 19.9489 10.2612 17.6311" stroke="black" stroke-width="2.5" stroke-linecap="round" stroke-linejoin="round"/>
</svg>
