<svg width="56" height="56" viewBox="0 0 56 56" fill="none" xmlns="http://www.w3.org/2000/svg">
<path d="M51.9991 28.5429C51.9991 28.5323 51.9991 28.5225 51.9991 28.5118C52.0111 28.1981 51.902 27.8921 51.6953 27.66C51.4886 27.4279 51.2009 27.2883 50.8944 27.2713H50.604L46.1245 17.3301C46.0425 17.1317 45.9061 16.9618 45.7318 16.8408C45.5575 16.7199 45.3528 16.6531 45.1422 16.6485H37.4926L37.7846 13.994C37.8822 12.9828 37.5939 11.9721 36.9799 11.1734C36.6984 10.8075 36.3394 10.5118 35.9299 10.3085C35.5205 10.1053 35.0712 9.99978 34.6161 10H10.8729C10.5666 10.0185 10.278 10.153 10.0635 10.3774C9.84886 10.6018 9.72366 10.8998 9.71226 11.2135L9.47229 13.4007H22.9989C23.2187 13.4136 23.4338 13.4714 23.6314 13.5707C23.8291 13.67 24.0053 13.8088 24.1496 13.9789C24.294 14.1489 24.4035 14.3469 24.4719 14.561C24.5402 14.7751 24.5659 15.001 24.5475 15.2255C24.5586 15.6864 24.3949 16.1337 24.0907 16.4739C23.7865 16.814 23.3654 17.0206 22.9157 17.0503H18.4026V17.0576H5.15833C4.84036 17.0785 4.5426 17.2243 4.32743 17.4647C4.11226 17.7051 3.99637 18.0214 4.00405 18.3472C3.99109 18.5059 4.00931 18.6657 4.05766 18.8171C4.10601 18.9685 4.1835 19.1084 4.28556 19.2287C4.38762 19.3489 4.51219 19.4471 4.65192 19.5173C4.79165 19.5876 4.94371 19.6285 5.09914 19.6376H22.6421C23.0624 19.7353 23.4346 19.9836 23.6914 20.3377C23.9482 20.6918 24.0726 21.1282 24.042 21.5679C24.0533 22.0595 23.8792 22.5366 23.5559 22.9004C23.2326 23.2642 22.7848 23.4868 22.3054 23.522H10.213C9.89093 23.5422 9.58908 23.6895 9.37096 23.9327C9.15284 24.176 9.03547 24.4963 9.04353 24.8263C9.03035 24.9867 9.0487 25.1481 9.09751 25.3011C9.14632 25.454 9.2246 25.5954 9.32772 25.7169C9.43084 25.8384 9.55672 25.9376 9.69792 26.0085C9.83912 26.0794 9.99277 26.1207 10.1498 26.1298H22.1006C22.5264 26.2217 22.9053 26.4682 23.1671 26.8239C23.4289 27.1796 23.5559 27.6202 23.5244 28.0642C23.5366 28.5582 23.3613 29.0378 23.0353 29.4024C22.7093 29.767 22.2579 29.9883 21.7758 30.0199H8.06923H6.91735C6.59612 30.0412 6.29539 30.1887 6.07814 30.4317C5.86089 30.6747 5.74397 30.9942 5.75187 31.3234C5.73869 31.4838 5.75704 31.6452 5.80585 31.7982C5.85466 31.9511 5.93294 32.0925 6.03606 32.214C6.13918 32.3355 6.26506 32.4347 6.40626 32.5056C6.54746 32.5765 6.70111 32.6178 6.85816 32.6269H7.85245L7.46369 37.2968C7.36595 38.308 7.6543 39.3187 8.26841 40.1174C8.54983 40.4833 8.90882 40.7791 9.3183 40.9824C9.72777 41.1856 10.177 41.2911 10.6322 41.2908H11.4897C11.6207 42.5464 12.1877 43.7121 13.0876 44.5763C13.9876 45.4404 15.1608 45.9456 16.394 46C17.6456 45.9343 18.8371 45.4307 19.7691 44.5736C20.7011 43.7164 21.3169 42.5578 21.5134 41.2916H32.2163C33.0888 41.2749 33.9217 40.9165 34.5433 40.2901C34.8238 40.6062 35.166 40.8587 35.5478 41.0312C35.9296 41.2037 36.3425 41.2924 36.7599 41.2916H36.9359C37.0669 42.5471 37.6339 43.7128 38.5339 44.5768C39.4339 45.4408 40.607 45.9458 41.8402 46C43.0918 45.9343 44.2833 45.4307 45.2153 44.5736C46.1472 43.7164 46.7631 42.5578 46.9596 41.2916H47.666C48.6252 41.2196 49.5253 40.7901 50.1958 40.0846C50.8663 39.3792 51.2606 38.4467 51.304 37.4638L51.9959 28.6632C51.9959 28.6509 51.9959 28.6395 51.9959 28.628C51.9959 28.6166 51.9959 28.592 51.9959 28.574C51.9959 28.556 51.9991 28.5536 51.9991 28.5429ZM16.454 43.3946C16.0613 43.3712 15.6771 43.2677 15.3241 43.09C14.9711 42.9124 14.6565 42.6643 14.3987 42.3603C14.1409 42.0564 13.9452 41.7027 13.8231 41.3202C13.7011 40.9376 13.6551 40.534 13.6879 40.133C13.669 39.3101 13.9616 38.5117 14.5047 37.9044C15.0477 37.297 15.7991 36.9278 16.602 36.8738C16.9944 36.8973 17.3782 37.0009 17.731 37.1784C18.0837 37.3559 18.3981 37.6038 18.6558 37.9075C18.9134 38.2112 19.1091 38.5645 19.2313 38.9467C19.3535 39.3289 19.3997 39.7322 19.3673 40.133C19.3868 40.9562 19.0944 41.7553 18.5513 42.3632C18.0082 42.971 17.2564 43.3406 16.4532 43.3946H16.454ZM41.8985 43.3946C41.5058 43.3712 41.1217 43.2677 40.7687 43.09C40.4157 42.9124 40.1011 42.6643 39.8433 42.3603C39.5855 42.0564 39.3898 41.7027 39.2677 41.3202C39.1456 40.9376 39.0996 40.534 39.1324 40.133C39.1136 39.3101 39.4062 38.5117 39.9492 37.9044C40.4923 37.297 41.2437 36.9278 42.0465 36.8738C42.439 36.8973 42.8228 37.0009 43.1755 37.1784C43.5283 37.3559 43.8427 37.6038 44.1004 37.9075C44.358 38.2112 44.5537 38.5645 44.6759 38.9467C44.7981 39.3289 44.8443 39.7322 44.8118 40.133C44.8313 40.9562 44.539 41.7553 43.9959 42.3632C43.4528 42.971 42.7018 43.3406 41.8985 43.3946ZM49.0386 37.2993C49.0206 37.6545 48.8775 37.991 48.6357 38.2467C48.394 38.5024 48.07 38.66 47.7235 38.6904H46.9596C46.7755 37.4931 46.1911 36.3983 45.3061 35.5926C44.4211 34.7868 43.2903 34.32 42.1065 34.2717C40.9044 34.3308 39.7556 34.7969 38.8408 35.5968C37.9259 36.3967 37.2969 37.4849 37.0526 38.6904H36.8191C36.6801 38.692 36.5426 38.6613 36.4169 38.6007C36.2912 38.54 36.1807 38.4509 36.0935 38.3401C35.9069 38.0924 35.8209 37.7805 35.8536 37.4695L37.2862 19.258H40.5755L40.0539 25.886C39.9562 26.8972 40.2445 27.9079 40.8587 28.7066C41.1401 29.0727 41.4992 29.3687 41.9088 29.5721C42.3184 29.7755 42.7679 29.8811 43.2232 29.8808H49.6226L49.0386 37.2993Z" fill="black"/>
</svg>
